<svg xmlns="http://www.w3.org/2000/svg" width="1100" height="620" viewBox="0 0 1100 620"><rect x="0" y="0" width="1100" height="620" fill="#fbf7ee"/><rect x="86" y="72" width="972" height="460" fill="#fffdf8" stroke="#d6c8ad"/><line x1="86.00" y1="72" x2="86.00" y2="532" stroke="#e6dcc9" stroke-width="1"/><text x="86.0" y="560.0" text-anchor="middle" font-size="13" font-weight="400" fill="#13202b">0</text><line x1="220.63" y1="72" x2="220.63" y2="532" stroke="#e6dcc9" stroke-width="1"/><text x="220.6" y="560.0" text-anchor="middle" font-size="13" font-weight="400" fill="#13202b">10</text><line x1="355.26" y1="72" x2="355.26" y2="532" stroke="#e6dcc9" stroke-width="1"/><text x="355.3" y="560.0" text-anchor="middle" font-size="13" font-weight="400" fill="#13202b">20</text><line x1="489.89" y1="72" x2="489.89" y2="532" stroke="#e6dcc9" stroke-width="1"/><text x="489.9" y="560.0" text-anchor="middle" font-size="13" font-weight="400" fill="#13202b">30</text><line x1="624.52" y1="72" x2="624.52" y2="532" stroke="#e6dcc9" stroke-width="1"/><text x="624.5" y="560.0" text-anchor="middle" font-size="13" font-weight="400" fill="#13202b">40</text><line x1="759.15" y1="72" x2="759.15" y2="532" stroke="#e6dcc9" stroke-width="1"/><text x="759.1" y="560.0" text-anchor="middle" font-size="13" font-weight="400" fill="#13202b">50</text><line x1="893.78" y1="72" x2="893.78" y2="532" stroke="#e6dcc9" stroke-width="1"/><text x="893.8" y="560.0" text-anchor="middle" font-size="13" font-weight="400" fill="#13202b">60</text><line x1="1028.41" y1="72" x2="1028.41" y2="532" stroke="#e6dcc9" stroke-width="1"/><text x="1028.4" y="560.0" text-anchor="middle" font-size="13" font-weight="400" fill="#13202b">70</text><line x1="1058.00" y1="72" x2="1058.00" y2="532" stroke="#e6dcc9" stroke-width="1"/><text x="1058.0" y="560.0" text-anchor="middle" font-size="13" font-weight="400" fill="#13202b">72.198</text><line x1="86" y1="527.52" x2="1058" y2="527.52" stroke="#e6dcc9" stroke-width="1"/><text x="72.0" y="532.5" text-anchor="end" font-size="13" font-weight="400" fill="#13202b">46</text><line x1="86" y1="507.27" x2="1058" y2="507.27" stroke="#e6dcc9" stroke-width="1"/><text x="72.0" y="512.3" text-anchor="end" font-size="13" font-weight="400" fill="#13202b">48</text><line x1="86" y1="487.03" x2="1058" y2="487.03" stroke="#e6dcc9" stroke-width="1"/><text x="72.0" y="492.0" text-anchor="end" font-size="13" font-weight="400" fill="#13202b">50</text><line x1="86" y1="466.78" x2="1058" y2="466.78" stroke="#e6dcc9" stroke-width="1"/><text x="72.0" y="471.8" text-anchor="end" font-size="13" font-weight="400" fill="#13202b">52</text><line x1="86" y1="446.54" x2="1058" y2="446.54" stroke="#e6dcc9" stroke-width="1"/><text x="72.0" y="451.5" text-anchor="end" font-size="13" font-weight="400" fill="#13202b">54</text><line x1="86" y1="426.29" x2="1058" y2="426.29" stroke="#e6dcc9" stroke-width="1"/><text x="72.0" y="431.3" text-anchor="end" font-size="13" font-weight="400" fill="#13202b">56</text><line x1="86" y1="406.05" x2="1058" y2="406.05" stroke="#e6dcc9" stroke-width="1"/><text x="72.0" y="411.0" text-anchor="end" font-size="13" font-weight="400" fill="#13202b">58</text><line x1="86" y1="385.80" x2="1058" y2="385.80" stroke="#e6dcc9" stroke-width="1"/><text x="72.0" y="390.8" text-anchor="end" font-size="13" font-weight="400" fill="#13202b">60</text><line x1="86" y1="365.56" x2="1058" y2="365.56" stroke="#e6dcc9" stroke-width="1"/><text x="72.0" y="370.6" text-anchor="end" font-size="13" font-weight="400" fill="#13202b">62</text><line x1="86" y1="345.31" x2="1058" y2="345.31" stroke="#e6dcc9" stroke-width="1"/><text x="72.0" y="350.3" text-anchor="end" font-size="13" font-weight="400" fill="#13202b">64</text><line x1="86" y1="325.07" x2="1058" y2="325.07" stroke="#e6dcc9" stroke-width="1"/><text x="72.0" y="330.1" text-anchor="end" font-size="13" font-weight="400" fill="#13202b">66</text><line x1="86" y1="304.82" x2="1058" y2="304.82" stroke="#e6dcc9" stroke-width="1"/><text x="72.0" y="309.8" text-anchor="end" font-size="13" font-weight="400" fill="#13202b">68</text><line x1="86" y1="284.58" x2="1058" y2="284.58" stroke="#e6dcc9" stroke-width="1"/><text x="72.0" y="289.6" text-anchor="end" font-size="13" font-weight="400" fill="#13202b">70</text><line x1="86" y1="264.33" x2="1058" y2="264.33" stroke="#e6dcc9" stroke-width="1"/><text x="72.0" y="269.3" text-anchor="end" font-size="13" font-weight="400" fill="#13202b">72</text><line x1="86" y1="244.09" x2="1058" y2="244.09" stroke="#e6dcc9" stroke-width="1"/><text x="72.0" y="249.1" text-anchor="end" font-size="13" font-weight="400" fill="#13202b">74</text><line x1="86" y1="223.84" x2="1058" y2="223.84" stroke="#e6dcc9" stroke-width="1"/><text x="72.0" y="228.8" text-anchor="end" font-size="13" font-weight="400" fill="#13202b">76</text><line x1="86" y1="203.59" x2="1058" y2="203.59" stroke="#e6dcc9" stroke-width="1"/><text x="72.0" y="208.6" text-anchor="end" font-size="13" font-weight="400" fill="#13202b">78</text><line x1="86" y1="183.35" x2="1058" y2="183.35" stroke="#e6dcc9" stroke-width="1"/><text x="72.0" y="188.3" text-anchor="end" font-size="13" font-weight="400" fill="#13202b">80</text><line x1="86" y1="163.10" x2="1058" y2="163.10" stroke="#e6dcc9" stroke-width="1"/><text x="72.0" y="168.1" text-anchor="end" font-size="13" font-weight="400" fill="#13202b">82</text><line x1="86" y1="142.86" x2="1058" y2="142.86" stroke="#e6dcc9" stroke-width="1"/><text x="72.0" y="147.9" text-anchor="end" font-size="13" font-weight="400" fill="#13202b">84</text><line x1="86" y1="122.61" x2="1058" y2="122.61" stroke="#e6dcc9" stroke-width="1"/><text x="72.0" y="127.6" text-anchor="end" font-size="13" font-weight="400" fill="#13202b">86</text><line x1="86" y1="102.37" x2="1058" y2="102.37" stroke="#e6dcc9" stroke-width="1"/><text x="72.0" y="107.4" text-anchor="end" font-size="13" font-weight="400" fill="#13202b">88</text><line x1="86" y1="82.12" x2="1058" y2="82.12" stroke="#e6dcc9" stroke-width="1"/><text x="72.0" y="87.1" text-anchor="end" font-size="13" font-weight="400" fill="#13202b">90</text><line x1="86" y1="532" x2="1058" y2="532" stroke="#27313d" stroke-width="1.4"/><line x1="86" y1="72" x2="86" y2="532" stroke="#27313d" stroke-width="1.4"/><line x1="86" y1="82.12" x2="1058" y2="82.12" stroke="#d89c21" stroke-dasharray="7,6" stroke-width="2"/><polyline points="86.00,461.65 90.48,461.89 103.95,462.60 117.41,463.32 130.87,464.03 139.85,464.51 144.34,464.75 157.80,465.46 171.26,466.19 184.72,466.91 198.19,467.64 211.65,468.37 225.11,469.10 238.58,469.84 252.04,470.58 265.50,471.33 278.96,472.08 292.43,472.83 305.89,473.58 319.35,474.34 332.82,475.10 346.28,475.87 359.74,476.64 373.21,477.41 386.67,478.19 400.13,478.97 413.59,479.75 427.06,480.54 440.52,481.33 453.98,482.12 467.45,482.92 480.91,483.72 494.37,484.52 507.84,485.33 521.30,486.15 534.76,486.96 548.22,487.78 561.69,488.61 575.15,489.43 588.61,490.27 602.08,491.10 615.54,491.94 629.00,492.79 642.47,493.63 655.93,494.48 669.39,495.34 682.85,496.20 696.32,497.06 709.78,497.93 723.24,498.80 736.71,499.68 750.17,500.56 763.63,501.44 777.09,502.33 790.56,503.22 804.02,504.12 817.48,505.02 830.95,505.93 844.41,506.84 857.87,507.75 871.34,508.67 884.80,509.59 898.26,510.52 911.72,511.45 925.19,512.39 938.65,513.33 952.11,514.28 965.58,515.23 979.04,516.18 992.50,517.14 1005.97,518.11 1019.43,519.08 1032.89,520.05 1046.35,521.03 1058.00,521.88" fill="none" stroke="#1f6f8b" stroke-width="3" stroke-linejoin="round" stroke-linecap="round"/><circle cx="1058.00" cy="521.88" r="6" fill="#c43b2f" stroke="#ffffff" stroke-width="2"/><text x="550.0" y="34.0" text-anchor="middle" font-size="22" font-weight="700" fill="#13202b">Theta_s During First Maneuver, Launch 2026-05-15 16:40 BJT</text><text x="550.0" y="592.0" text-anchor="middle" font-size="16" font-weight="400" fill="#13202b">Minutes from first maneuver start</text><text x="27" y="310.0" text-anchor="middle" font-size="16" fill="#13202b" transform="rotate(-90 27 310.0)">Theta_s (deg)</text><rect x="808" y="90" width="226" height="70" rx="10" fill="#fff8ea" stroke="#d6c8ad"/><line x1="826" y1="114" x2="868" y2="114" stroke="#1f6f8b" stroke-width="3"/><text x="880.0" y="119.0" text-anchor="start" font-size="14" font-weight="400" fill="#13202b">theta_s</text><line x1="826" y1="140" x2="868" y2="140" stroke="#d89c21" stroke-dasharray="7,6" stroke-width="2"/><text x="880.0" y="145.0" text-anchor="start" font-size="14" font-weight="400" fill="#13202b">global limit 90 deg</text><text x="1050.0" y="507.9" text-anchor="end" font-size="13" font-weight="400" fill="#9e2f27">end 46.557 deg</text></svg>